<svg width="77" height="30" viewBox="0 0 77 30" fill="none" xmlns="http://www.w3.org/2000/svg">
<path d="M13.668 8.05561H0V5.09485H12.5718L13.668 8.05561Z" fill="#086375"/>
<path d="M8.11679 0H5.14227V12.9874H8.11679V0Z" fill="#086375"/>
<path d="M22.394 22.3525L22.3974 12.731H22.2996L18.8123 22.3513L15.6415 22.3502L12.1611 12.7275H12.0633L12.0598 22.349L9.31964 22.348L9.32433 9.27811L14.1979 9.27974L17.3264 17.9115H17.4047L20.5393 9.28191L25.4128 9.28354L25.4082 22.3536L22.394 22.3525ZM28.2422 22.3544L28.2468 9.28452L37.7003 9.28768L37.3668 11.6311L31.221 11.629L31.22 14.4869L36.9547 14.4888L36.9538 16.8322L31.2192 16.8302L31.2179 20.012L37.4224 20.0141L37.7543 22.3577L28.2422 22.3544ZM47.0478 12.9871C47.048 12.5044 46.8524 12.1297 46.461 11.8627C46.0697 11.5832 45.5282 11.4433 44.8367 11.4431C44.119 11.4428 43.5579 11.557 43.1533 11.7854C42.7618 12.0012 42.566 12.2933 42.5659 12.6617C42.5658 12.9792 42.6896 13.246 42.9374 13.462C43.1853 13.6653 43.4984 13.8305 43.8767 13.9577C44.2681 14.0848 44.7966 14.2247 45.462 14.3773C46.4405 14.6063 47.2429 14.8416 47.8691 15.0832C48.5083 15.3246 49.0497 15.6996 49.4932 16.2077C49.9497 16.716 50.1778 17.3956 50.1775 18.2466C50.1769 19.7327 49.6807 20.8249 48.6888 21.5231C47.71 22.2087 46.3594 22.5512 44.637 22.5506C43.0712 22.55 41.773 22.2194 40.7424 21.5586C39.7249 20.885 39.2164 19.8687 39.2168 18.5096L39.2366 18.0905L42.0941 18.0915L42.0745 18.3962C42.0742 18.9551 42.2895 19.3998 42.7199 19.7302C43.1504 20.0478 43.757 20.2069 44.5399 20.2071C45.4534 20.2074 46.1058 20.068 46.4974 19.7886C46.902 19.5093 47.1043 19.1537 47.1044 18.7219C47.1046 18.3917 46.9807 18.1249 46.7329 17.9216C46.4981 17.7055 46.1915 17.5403 45.8132 17.4259C45.4479 17.2987 44.9324 17.1588 44.2671 17.0062C43.2756 16.7645 42.4666 16.523 41.8404 16.2814C41.2142 16.0398 40.6728 15.6522 40.2162 15.1186C39.7598 14.585 39.5317 13.8673 39.5321 12.9655C39.5323 12.1272 39.7675 11.4159 40.2374 10.8318C40.7073 10.2477 41.3339 9.81609 42.1168 9.53687C42.9129 9.24504 43.8002 9.09928 44.7788 9.09961C46.2793 9.10005 47.5058 9.4244 48.458 10.0725C49.4103 10.7079 49.8863 11.6608 49.8859 12.9309L49.8858 13.1595L47.0478 13.1585V12.9871ZM59.4717 12.9913C59.4718 12.5086 59.2762 12.1339 58.8848 11.867C58.4935 11.5874 57.9521 11.4476 57.2606 11.4472C56.5429 11.447 55.9817 11.5611 55.5772 11.7896C55.1857 12.0055 54.9898 12.2975 54.9897 12.6659C54.9896 12.9834 55.1135 13.2502 55.3613 13.4661C55.6092 13.6696 55.9223 13.8348 56.3006 13.9619C56.6919 14.0891 57.2203 14.229 57.8858 14.3816C58.8644 14.6105 59.6667 14.8458 60.293 15.0873C60.9322 15.3289 61.4736 15.7038 61.917 16.212C62.3736 16.7202 62.6016 17.3998 62.6013 18.2508C62.6008 19.737 62.1046 20.8291 61.1127 21.5273C60.1339 22.2129 58.7831 22.5553 57.0608 22.5548C55.4951 22.5543 54.1969 22.2236 53.1663 21.5628C52.1487 20.8892 51.6403 19.8729 51.6407 18.5138L51.6604 18.0947L54.518 18.0957L54.4984 18.4005C54.4981 18.9593 54.7132 19.404 55.1438 19.7343C55.5742 20.0521 56.1809 20.2111 56.9638 20.2113C57.8772 20.2116 58.5296 20.0722 58.9211 19.7929C59.3257 19.5135 59.5281 19.158 59.5283 18.7261C59.5284 18.3959 59.4045 18.1291 59.1567 17.9258C58.9219 17.7098 58.6153 17.5446 58.237 17.4301C57.8717 17.303 57.3563 17.1631 56.6909 17.0104C55.6993 16.7688 54.8905 16.5271 54.2643 16.2856C53.638 16.044 53.0966 15.6565 52.6401 15.1229C52.1837 14.5892 51.9555 13.8715 51.9558 12.9697C51.9562 12.1314 52.1913 11.4201 52.6613 10.836C53.1312 10.2519 53.7576 9.82033 54.5406 9.54112C55.3367 9.24928 56.2241 9.10353 57.2027 9.10385C58.7032 9.10429 59.9296 9.42865 60.8819 10.0767C61.8342 10.7122 62.3101 11.6649 62.3096 12.9351L62.3095 13.1638L59.4716 13.1628L59.4717 12.9913ZM72.6172 19.7975L67.274 19.7957L66.3336 22.3674L63.4173 22.3664L68.2955 9.29812L71.8968 9.29932L76.7656 22.371L73.5949 22.3699L72.6172 19.7975ZM68.0969 17.5669L71.8156 17.568C71.3202 16.1326 70.7206 14.424 70.0168 12.4424L69.9189 12.4423L68.0969 17.5669Z" fill="#212529"/>
<path d="M22.394 22.3526H22.3381V22.4069H22.394V22.3526ZM22.3975 12.731L22.4533 12.7311V12.6767L22.3975 12.6766V12.731ZM22.2996 12.731L22.2997 12.6766H22.2601L22.2469 12.713L22.2996 12.731ZM18.8123 22.3514V22.4057H18.8518L18.8649 22.3694L18.8123 22.3514ZM15.6416 22.3503L15.5888 22.3683L15.602 22.4047H15.6416V22.3503ZM12.1611 12.7275L12.2138 12.7095L12.2008 12.6733L12.1612 12.6732L12.1611 12.7275ZM12.0633 12.7275V12.6732H12.0075V12.7275H12.0633ZM12.0599 22.3491V22.4035H12.1157V22.3491H12.0599ZM9.31966 22.3481H9.26379V22.4025H9.31966V22.3481ZM9.32436 9.27817L9.32447 9.22378L9.2686 9.22367L9.26849 9.27806L9.32436 9.27817ZM14.1979 9.2798L14.2506 9.26164L14.2374 9.22542H14.1979V9.2798ZM17.3264 17.9116L17.2737 17.9297L17.2868 17.966H17.3264V17.9116ZM17.4047 17.9116V17.966H17.4441L17.4573 17.9298L17.4047 17.9116ZM20.5393 9.28198V9.22759H20.4999L20.4867 9.26381L20.5393 9.28198ZM25.4129 9.28361H25.4687V9.22922H25.4129V9.28361ZM25.4082 22.3536V22.408H25.464V22.3536H25.4082ZM22.4499 22.3526L22.4533 12.7311L22.3416 12.731L22.3381 22.3526H22.4499ZM22.3975 12.6766H22.2997L22.2996 12.7854H22.3975V12.6766ZM22.2469 12.713L18.7595 22.3333L18.8649 22.3694L22.3523 12.7491L22.2469 12.713ZM18.8123 22.297L15.6416 22.2959V22.4047L18.8123 22.4057V22.297ZM15.6943 22.3322L12.2138 12.7095L12.1085 12.7456L15.5888 22.3683L15.6943 22.3322ZM12.1612 12.6732H12.0633L12.0632 12.7819H12.1611L12.1612 12.6732ZM12.0075 12.7275L12.004 22.3491H12.1157L12.1192 12.7275H12.0075ZM12.0599 22.2947L9.31978 22.2937L9.31966 22.4025L12.0599 22.4035V22.2947ZM9.37553 22.3482L9.38023 9.27817L9.26849 9.27806L9.26379 22.3481L9.37553 22.3482ZM9.32436 9.33256L14.1979 9.33419V9.22542L9.32447 9.22378L9.32436 9.33256ZM14.1453 9.29786L17.2737 17.9297L17.3791 17.8936L14.2506 9.26164L14.1453 9.29786ZM17.3264 17.966H17.4047V17.8572H17.3264V17.966ZM17.4573 17.9298L20.592 9.30003L20.4867 9.26381L17.352 17.8936L17.4573 17.9298ZM20.5393 9.33636L25.4129 9.33799V9.22922L20.5393 9.22759V9.33636ZM25.357 9.28361L25.3523 22.3535L25.464 22.3536L25.4687 9.28361H25.357ZM25.4082 22.2993L22.394 22.2982V22.4069L25.4082 22.408V22.2993ZM28.2422 22.3545H28.1864L28.1863 22.4089H28.2421L28.2422 22.3545ZM28.2468 9.28459L28.2469 9.2302H28.1911L28.1909 9.28459H28.2468ZM37.7003 9.28774L37.7556 9.29525L37.7645 9.23336H37.7003V9.28774ZM37.3668 11.6311L37.3667 11.6855H37.4154L37.4221 11.6386L37.3668 11.6311ZM31.221 11.6291V11.5747H31.1651V11.6291H31.221ZM31.22 14.4869H31.1641V14.5413H31.22V14.4869ZM36.9547 14.4889H37.0106V14.4345H36.9547V14.4889ZM36.9538 16.8323V16.8867H37.0097V16.8323H36.9538ZM31.2192 16.8303V16.7759H31.1633V16.8303H31.2192ZM31.218 20.0121H31.1621V20.0665H31.218V20.0121ZM37.4224 20.0142L37.4777 20.0068L37.4712 19.9599L37.4224 19.9598V20.0142ZM37.7543 22.3578V22.4122H37.8184L37.8097 22.3504L37.7543 22.3578ZM28.2981 22.3546L28.3027 9.28459H28.1909L28.1864 22.3545L28.2981 22.3546ZM28.2468 9.33897L37.7003 9.34213V9.23336L28.2469 9.2302L28.2468 9.33897ZM37.6449 9.28035L37.3114 11.6236L37.4221 11.6386L37.7556 9.29525L37.6449 9.28035ZM37.3668 11.5767L31.221 11.5747V11.6834L37.3667 11.6855L37.3668 11.5767ZM31.1651 11.6291L31.1641 14.4869H31.2759L31.2769 11.6291H31.1651ZM31.22 14.5413L36.9547 14.5433V14.4345L31.22 14.4325V14.5413ZM36.8988 14.4888L36.8979 16.8323H37.0097L37.0106 14.4889L36.8988 14.4888ZM36.9539 16.7779L31.2192 16.7759L31.2191 16.8847L36.9538 16.8867L36.9539 16.7779ZM31.1633 16.8303L31.1621 20.0121H31.2738L31.2751 16.8304L31.1633 16.8303ZM31.218 20.0665L37.4224 20.0686V19.9598L31.2181 19.9577L31.218 20.0665ZM37.3671 20.0217L37.699 22.3652L37.8097 22.3504L37.4777 20.0068L37.3671 20.0217ZM37.7543 22.3034L28.2422 22.3001L28.2421 22.4089L37.7543 22.4122V22.3034ZM46.4611 11.8628L46.428 11.9066L46.429 11.9074L46.4611 11.8628ZM43.1533 11.7855L43.1809 11.8328L43.1814 11.8326L43.1533 11.7855ZM42.9375 13.4621L42.9001 13.5025L42.9008 13.5031L42.9015 13.5036L42.9375 13.4621ZM43.8767 13.9578L43.8585 14.0091L43.8591 14.0093L43.8767 13.9578ZM45.462 14.3774L45.4751 14.3245H45.4747L45.462 14.3774ZM47.8691 15.0832L47.8485 15.1338L47.8489 15.1339L47.8691 15.0832ZM49.4932 16.2078L49.4507 16.2431L49.4511 16.2436L49.4932 16.2078ZM48.6888 21.5232L48.7214 21.5673L48.7216 21.5672L48.6888 21.5232ZM40.7424 21.5586L40.711 21.6036L40.7117 21.604L40.7424 21.5586ZM39.2169 18.5096L39.1611 18.5072L39.161 18.5084V18.5096H39.2169ZM39.2366 18.0905V18.0362H39.1832L39.1808 18.088L39.2366 18.0905ZM42.0942 18.0915L42.1499 18.0949L42.1537 18.0371H42.0942V18.0915ZM42.0745 18.3963L42.0187 18.3929L42.0186 18.3947V18.3963H42.0745ZM42.7199 19.7303L42.6853 19.7729L42.6862 19.7736L42.7199 19.7303ZM46.4974 19.7887L46.4651 19.7443L46.4643 19.7449L46.4974 19.7887ZM46.7329 17.9216L46.6945 17.9611L46.6957 17.9622L46.6969 17.9632L46.7329 17.9216ZM45.8132 17.4259L45.7943 17.4772L45.7954 17.4775L45.7965 17.4778L45.8132 17.4259ZM44.2672 17.0063L44.2535 17.0591L44.2543 17.0592L44.2672 17.0063ZM41.8404 16.2814L41.8198 16.332L41.8404 16.2814ZM40.2163 15.1187L40.1734 15.1535L40.2163 15.1187ZM40.2374 10.8319L40.2814 10.8654L40.2374 10.8319ZM42.1168 9.53694L42.1361 9.58806L42.1365 9.58784L42.1168 9.53694ZM48.4581 10.0725L48.4261 10.1171L48.4265 10.1175L48.4581 10.0725ZM49.8858 13.1596V13.214H49.9416V13.1596H49.8858ZM47.0478 13.1586H46.9919L46.9918 13.213H47.0477L47.0478 13.1586ZM47.1037 12.9872C47.1039 12.4875 46.9001 12.0958 46.4931 11.8183L46.429 11.9074C46.8048 12.1636 46.9922 12.5214 46.9919 12.9871L47.1037 12.9872ZM46.4941 11.819C46.0899 11.5302 45.5353 11.389 44.8367 11.3888V11.4976C45.5212 11.4978 46.0495 11.6363 46.428 11.9066L46.4941 11.819ZM44.8367 11.3888C44.1141 11.3885 43.5417 11.5032 43.1253 11.7385L43.1814 11.8326C43.574 11.6108 44.124 11.4972 44.8367 11.4976V11.3888ZM43.1259 11.7382C42.7207 11.9615 42.5102 12.2697 42.5101 12.6617H42.6218C42.6219 12.317 42.8029 12.0411 43.1808 11.8328L43.1259 11.7382ZM42.5101 12.6617C42.5098 12.995 42.6408 13.2764 42.9001 13.5025L42.9748 13.4215C42.7385 13.2156 42.6217 12.9635 42.6218 12.6617H42.5101ZM42.9015 13.5036C43.1556 13.7121 43.4752 13.8803 43.8585 14.0091L43.895 13.9063C43.5216 13.7809 43.215 13.6186 42.9734 13.4204L42.9015 13.5036ZM43.8591 14.0093C44.2528 14.1372 44.7831 14.2775 45.4491 14.4304L45.4747 14.3245C44.8101 14.172 44.2836 14.0326 43.8944 13.9061L43.8591 14.0093ZM45.4489 14.4303C46.426 14.6589 47.2256 14.8935 47.8485 15.1338L47.8897 15.0326C47.2601 14.7898 46.455 14.5538 45.4751 14.3245L45.4489 14.4303ZM47.8489 15.1339C48.4795 15.3721 49.0132 15.7417 49.4507 16.2431L49.5358 16.1726C49.0863 15.6575 48.5373 15.2773 47.8893 15.0325L47.8489 15.1339ZM49.4511 16.2436C49.8966 16.7396 50.122 17.4053 50.1217 18.2466L50.2334 18.2467C50.2337 17.386 50.0028 16.6925 49.5352 16.172L49.4511 16.2436ZM50.1217 18.2466C50.1211 19.7202 49.6299 20.7936 48.6561 21.4791L48.7216 21.5672C49.7316 20.8563 50.2328 19.7454 50.2334 18.2467L50.1217 18.2466ZM48.6562 21.479C47.6902 22.1557 46.3525 22.4969 44.637 22.4962V22.605C46.3662 22.6057 47.7298 22.2618 48.7214 21.5673L48.6562 21.479ZM44.637 22.4962C43.0793 22.4957 41.7925 22.1668 40.7732 21.5132L40.7117 21.604C41.7536 22.2721 43.0632 22.6045 44.637 22.605V22.4962ZM40.7738 21.5136C39.7739 20.8517 39.2723 19.8536 39.2727 18.5098L39.161 18.5096C39.1605 19.884 39.676 20.9184 40.711 21.6036L40.7738 21.5136ZM39.2727 18.5121L39.2924 18.093L39.1808 18.088L39.1611 18.5072L39.2727 18.5121ZM39.2366 18.1449L42.0942 18.1459V18.0371L39.2366 18.0362V18.1449ZM42.0384 18.0882L42.0187 18.3929L42.1303 18.3998L42.1499 18.0949L42.0384 18.0882ZM42.0186 18.3963C42.0184 18.9709 42.2407 19.4317 42.6854 19.7729L42.7545 19.6875C42.3382 19.368 42.1301 18.9395 42.1304 18.3964L42.0186 18.3963ZM42.6862 19.7736C43.1299 20.101 43.7501 20.2613 44.5399 20.2615L44.54 20.1527C43.764 20.1525 43.171 19.9948 42.7537 19.6869L42.6862 19.7736ZM44.5399 20.2615C45.4562 20.2618 46.1239 20.1225 46.5303 19.8325L46.4643 19.7449C46.0877 20.0135 45.4505 20.1531 44.54 20.1527L44.5399 20.2615ZM46.5297 19.8331C46.947 19.5449 47.1602 19.1737 47.1603 18.722H47.0486C47.0485 19.1339 46.8568 19.4738 46.4651 19.7443L46.5297 19.8331ZM47.1603 18.722C47.1604 18.3765 47.03 18.0942 46.7689 17.8801L46.6969 17.9632C46.9315 18.1556 47.0487 18.4069 47.0486 18.722H47.1603ZM46.7713 17.8821C46.529 17.6593 46.2145 17.4903 45.8297 17.374L45.7965 17.4778C46.1686 17.5904 46.4672 17.7519 46.6945 17.9611L46.7713 17.8821ZM45.832 17.3747C45.4638 17.2466 44.9461 17.1062 44.2799 16.9533L44.2543 17.0592C44.9189 17.2117 45.4319 17.351 45.7943 17.4772L45.832 17.3747ZM44.2807 16.9536C43.2904 16.7122 42.4841 16.4713 41.861 16.2309L41.8198 16.332C42.4492 16.5748 43.2606 16.817 44.2535 17.0591L44.2807 16.9536ZM41.861 16.2309C41.2439 15.9929 40.7102 15.611 40.2593 15.0839L40.1734 15.1535C40.6355 15.6936 41.1844 16.0869 41.8198 16.332L41.861 16.2309ZM40.2593 15.0839C39.8133 14.5626 39.5876 13.8584 39.588 12.9655H39.4762C39.4759 13.8762 39.7063 14.6074 40.1734 15.1535L40.2593 15.0839ZM39.588 12.9655C39.5882 12.1377 39.8201 11.4387 40.2814 10.8654L40.1935 10.7984C39.7148 11.3932 39.4764 12.1167 39.4762 12.9655H39.588ZM40.2814 10.8654C40.7443 10.29 41.3619 9.86402 42.1361 9.58806L42.0976 9.48592C41.3058 9.76819 40.6704 10.2056 40.1935 10.7984L40.2814 10.8654ZM42.1365 9.58784C42.9254 9.29862 43.8059 9.15373 44.7788 9.15406V9.04529C43.7945 9.04496 42.9004 9.19159 42.0972 9.48603L42.1365 9.58784ZM44.7788 9.15406C46.2712 9.1545 47.4856 9.477 48.4261 10.1171L48.49 10.028C47.5261 9.37193 46.2875 9.04572 44.7788 9.04529V9.15406ZM48.4265 10.1175C49.3614 10.7413 49.8305 11.6759 49.83 12.9309H49.9418C49.9422 11.6456 49.4594 10.6747 48.4897 10.0277L48.4265 10.1175ZM49.83 12.9309L49.8299 13.1596H49.9416L49.9418 12.9309H49.83ZM49.8858 13.1052L47.0478 13.1042L47.0477 13.213L49.8858 13.214V13.1052ZM47.1037 13.1586V12.9872L46.9919 12.9871V13.1586H47.1037ZM58.885 11.8671L58.8519 11.9109L58.8529 11.9116L58.885 11.8671ZM55.5772 11.7897L55.6047 11.837L55.6053 11.8368L55.5772 11.7897ZM55.3614 13.4662L55.324 13.5068L55.3247 13.5073L55.3253 13.5079L55.3614 13.4662ZM56.3006 13.962L56.2823 14.0133L56.2829 14.0136L56.3006 13.962ZM57.8858 14.3816L57.8989 14.3288L57.8986 14.3287L57.8858 14.3816ZM60.293 15.0873L60.2723 15.1379L60.2728 15.1381L60.293 15.0873ZM61.917 16.2121L61.8744 16.2473L61.875 16.2478L61.917 16.2121ZM61.1127 21.5274L61.1453 21.5716L61.1455 21.5715L61.1127 21.5274ZM53.1663 21.5629L53.1348 21.6078L53.1356 21.6082L53.1663 21.5629ZM51.6408 18.5139L51.5849 18.5114V18.5127V18.5139H51.6408ZM51.6604 18.0948L51.6605 18.0404H51.6071L51.6047 18.0923L51.6604 18.0948ZM54.5181 18.0958L54.5738 18.0991L54.5775 18.0414H54.5181V18.0958ZM54.4984 18.4005L54.4426 18.3972L54.4425 18.3988V18.4005H54.4984ZM55.1438 19.7344L55.1092 19.7772L55.1101 19.7778L55.1438 19.7344ZM58.9212 19.7929L58.8889 19.7486L58.8882 19.749L58.9212 19.7929ZM59.1567 17.9259L59.1184 17.9653L59.1195 17.9664L59.1207 17.9674L59.1567 17.9259ZM58.237 17.4302L58.2182 17.4814L58.2193 17.4817L58.2204 17.4821L58.237 17.4302ZM56.6909 17.0104L56.6774 17.0632L56.6781 17.0634L56.6909 17.0104ZM54.2643 16.2857L54.2436 16.3363L54.2643 16.2857ZM52.6402 15.1229L52.5973 15.1577L52.6402 15.1229ZM52.6613 10.8361L52.7053 10.8696L52.6613 10.8361ZM54.5406 9.54118L54.5599 9.59219L54.5604 9.59209L54.5406 9.54118ZM60.882 10.0768L60.8499 10.1214L60.8503 10.1217L60.882 10.0768ZM62.3096 13.1638V13.2182H62.3654V13.1638H62.3096ZM59.4716 13.1628H59.4157V13.2172H59.4716V13.1628ZM59.5276 12.9913C59.5277 12.4917 59.3239 12.1 58.9169 11.8226L58.8529 11.9116C59.2286 12.1678 59.4159 12.5257 59.4158 12.9913H59.5276ZM58.9179 11.8232C58.5138 11.5344 57.9591 11.3932 57.2606 11.3929L57.2605 11.5017C57.9451 11.502 58.4734 11.6406 58.8519 11.9109L58.9179 11.8232ZM57.2606 11.3929C56.5379 11.3927 55.9656 11.5074 55.5492 11.7427L55.6053 11.8368C55.9979 11.615 56.5479 11.5015 57.2605 11.5017L57.2606 11.3929ZM55.5496 11.7424C55.1446 11.9657 54.934 12.274 54.9338 12.6659L55.0456 12.666C55.0457 12.3213 55.2268 12.0453 55.6047 11.837L55.5496 11.7424ZM54.9338 12.6659C54.9337 12.9993 55.0646 13.2806 55.324 13.5068L55.3986 13.4258C55.1623 13.2198 55.0455 12.9677 55.0456 12.666L54.9338 12.6659ZM55.3253 13.5079C55.5795 13.7164 55.899 13.8846 56.2823 14.0133L56.3189 13.9105C55.9455 13.7851 55.6388 13.6228 55.3973 13.4247L55.3253 13.5079ZM56.2829 14.0136C56.6766 14.1415 57.2068 14.2818 57.873 14.4346L57.8986 14.3287C57.234 14.1763 56.7074 14.0367 56.3183 13.9103L56.2829 14.0136ZM57.8727 14.4345C58.8499 14.6631 59.6495 14.8977 60.2723 15.1379L60.3135 15.0369C59.684 14.794 58.8788 14.5581 57.8989 14.3288L57.8727 14.4345ZM60.2728 15.1381C60.9033 15.3764 61.4371 15.746 61.8744 16.2473L61.9596 16.1768C61.5102 15.6618 60.9611 15.2815 60.3132 15.0367L60.2728 15.1381ZM61.875 16.2478C62.3205 16.7437 62.5458 17.4095 62.5454 18.2509H62.6572C62.6575 17.3903 62.4267 16.6967 61.9591 16.1763L61.875 16.2478ZM62.5454 18.2509C62.545 19.7243 62.0538 20.7979 61.08 21.4834L61.1455 21.5715C62.1555 20.8605 62.6567 19.7496 62.6572 18.2509H62.5454ZM61.0801 21.4832C60.114 22.1599 58.7763 22.501 57.0608 22.5005V22.6093C58.7901 22.6099 60.1537 22.2661 61.1453 21.5716L61.0801 21.4832ZM57.0608 22.5005C55.503 22.4999 54.2164 22.171 53.1971 21.5174L53.1356 21.6082C54.1775 22.2763 55.4871 22.6087 57.0608 22.6093V22.5005ZM53.1977 21.5178C52.1978 20.856 51.6962 19.8579 51.6966 18.5139H51.5849C51.5844 19.8881 52.0998 20.9226 53.1349 21.6078L53.1977 21.5178ZM51.6965 18.5164L51.7163 18.0973L51.6047 18.0923L51.5849 18.5114L51.6965 18.5164ZM51.6604 18.1492L54.5181 18.1502V18.0414L51.6605 18.0404L51.6604 18.1492ZM54.4623 18.0923L54.4426 18.3972L54.5541 18.404L54.5738 18.0991L54.4623 18.0923ZM54.4425 18.4005C54.4423 18.9752 54.6645 19.4359 55.1092 19.7772L55.1783 19.6918C54.7621 19.3722 54.554 18.9438 54.5543 18.4005H54.4425ZM55.1101 19.7778C55.5537 20.1052 56.174 20.2655 56.9638 20.2658V20.157C56.1879 20.1568 55.5948 19.9991 55.1775 19.6911L55.1101 19.7778ZM56.9638 20.2658C57.8801 20.2661 58.5477 20.1268 58.9542 19.8368L58.8882 19.749C58.5115 20.0177 57.8744 20.1573 56.9638 20.157V20.2658ZM58.9536 19.8373C59.3709 19.5492 59.584 19.1779 59.5842 18.7262L59.4725 18.7261C59.4723 19.1381 59.2807 19.478 58.8889 19.7486L58.9536 19.8373ZM59.5842 18.7262C59.5843 18.3807 59.4538 18.0985 59.1927 17.8842L59.1207 17.9674C59.3553 18.1598 59.4726 18.4111 59.4725 18.7261L59.5842 18.7262ZM59.1951 17.8863C58.9529 17.6635 58.6382 17.4946 58.2536 17.3782L58.2204 17.4821C58.5924 17.5947 58.891 17.7562 59.1184 17.9653L59.1951 17.8863ZM58.2559 17.379C57.8876 17.2508 57.3699 17.1104 56.7038 16.9576L56.6781 17.0634C57.3428 17.2159 57.8558 17.3552 58.2182 17.4814L58.2559 17.379ZM56.7045 16.9577C55.7142 16.7163 54.9079 16.4754 54.2849 16.2351L54.2436 16.3363C54.8731 16.5789 55.6845 16.8213 56.6774 17.0632L56.7045 16.9577ZM54.2849 16.2351C53.6678 15.9971 53.1339 15.6151 52.6831 15.0881L52.5973 15.1577C53.0593 15.6979 53.6083 16.0911 54.2436 16.3363L54.2849 16.2351ZM52.6831 15.0881C52.2372 14.5669 52.0114 13.8627 52.0117 12.9698L51.9 12.9697C51.8997 13.8804 52.1302 14.6117 52.5973 15.1577L52.6831 15.0881ZM52.0117 12.9698C52.0121 12.1419 52.244 11.4429 52.7053 10.8696L52.6173 10.8026C52.1387 11.3975 51.9003 12.1209 51.9 12.9697L52.0117 12.9698ZM52.7053 10.8696C53.1681 10.2942 53.7857 9.86826 54.5599 9.59219L54.5214 9.49006C53.7296 9.77243 53.0943 10.2097 52.6173 10.8026L52.7053 10.8696ZM54.5604 9.59209C55.3493 9.30286 56.2298 9.15798 57.2026 9.1583L57.2027 9.04953C56.2183 9.0492 55.3241 9.19583 54.521 9.49027L54.5604 9.59209ZM57.2026 9.1583C58.6951 9.15874 59.9094 9.48125 60.8499 10.1214L60.9139 10.0322C59.9498 9.37606 58.7113 9.04997 57.2027 9.04953L57.2026 9.1583ZM60.8503 10.1217C61.7853 10.7455 62.2542 11.6802 62.2538 12.9352H62.3655C62.366 11.6498 61.8832 10.6789 60.9135 10.032L60.8503 10.1217ZM62.2538 12.9352L62.2537 13.1637L62.3654 13.1638L62.3655 12.9352H62.2538ZM62.3097 13.1094L59.4716 13.1085V13.2172L62.3096 13.2182L62.3097 13.1094ZM59.5275 13.1628L59.5276 12.9913H59.4158L59.4157 13.1628H59.5275ZM72.6172 19.7976L72.6696 19.7787L72.6562 19.7432H72.6172V19.7976ZM67.274 19.7958V19.7414H67.2346L67.2214 19.7775L67.274 19.7958ZM66.3336 22.3675V22.4218L66.373 22.4219L66.3863 22.3857L66.3336 22.3675ZM63.4173 22.3665L63.3648 22.348L63.3376 22.4209H63.4173V22.3665ZM68.2956 9.29818V9.2438H68.2563L68.243 9.27958L68.2956 9.29818ZM71.8968 9.29938L71.9493 9.28089L71.936 9.24499H71.8968V9.29938ZM76.7657 22.371V22.4254H76.8453L76.8182 22.3526L76.7657 22.371ZM73.5949 22.37L73.5425 22.3889L73.5561 22.4243H73.5949V22.37ZM68.0969 17.5669L68.044 17.5491L68.0183 17.6212L68.0968 17.6213L68.0969 17.5669ZM71.8156 17.5681V17.6225L71.8932 17.6226L71.8686 17.5508L71.8156 17.5681ZM70.0168 12.4425L70.0695 12.4246L70.0566 12.3881H70.0168V12.4425ZM69.9189 12.4423V12.388H69.8791L69.8661 12.4246L69.9189 12.4423ZM72.6172 19.7432L67.274 19.7414L67.2739 19.8501L72.6172 19.852V19.7432ZM67.2214 19.7775L66.281 22.3493L66.3863 22.3857L67.3267 19.8139L67.2214 19.7775ZM66.3336 22.3131L63.4173 22.3121V22.4209L66.3336 22.4218V22.3131ZM63.4699 22.3851L68.3481 9.31678L68.243 9.27958L63.3648 22.348L63.4699 22.3851ZM68.2955 9.35257L71.8968 9.35377V9.24499L68.2956 9.2438L68.2955 9.35257ZM71.8443 9.31798L76.7131 22.3895L76.8182 22.3526L71.9493 9.28089L71.8443 9.31798ZM76.7657 22.3167L73.5949 22.3156V22.4243L76.7657 22.4254V22.3167ZM73.6473 22.3511L72.6696 19.7787L72.5648 19.8164L73.5425 22.3889L73.6473 22.3511ZM68.0968 17.6213L71.8156 17.6225V17.5137L68.0969 17.5125L68.0968 17.6213ZM71.8686 17.5508C71.3732 16.1151 70.7735 14.4064 70.0695 12.4246L69.9639 12.4602C70.6678 14.4418 71.2674 16.1502 71.7626 17.5854L71.8686 17.5508ZM70.0168 12.3881L69.9189 12.388V12.4967L70.0167 12.4968L70.0168 12.3881ZM69.8661 12.4246L68.044 17.5491L68.1496 17.5846L69.9717 12.4602L69.8661 12.4246Z" fill="#333333"/>
</svg>
